<svg width="708" height="105" viewBox="0 0 708 105" fill="none" xmlns="http://www.w3.org/2000/svg">
<path d="M125.139 66.9884C125.139 83.6013 135.389 94.8744 154.41 94.8744C172.544 94.8744 183.877 83.9969 183.877 66.9884V21.7972H173.233V66.0984C173.233 78.2615 165.842 84.9857 154.508 84.9857C143.076 84.9857 135.783 78.0637 135.783 66.0984V21.7972H125.139V66.9884Z" fill="url(#paint0_linear)"/>
<path d="M191.216 93.8856H201.367V66.5929C201.367 56.6053 206.985 49.7821 215.657 49.7821C223.049 49.7821 227.188 54.0343 227.188 63.1318V93.8856H237.438V62.143C237.438 49.2877 231.032 40.8823 219.501 40.8823C211.715 40.8823 205.309 44.8378 202.155 51.5621H201.466L200.086 41.8712H191.216V93.8856Z" fill="url(#paint1_linear)"/>
<path d="M245.662 33.367H255.715V21.105H245.662V33.367ZM245.662 93.8856H255.715V41.8712H245.662V93.8856Z" fill="url(#paint2_linear)"/>
<path d="M261.524 41.8712L280.052 93.8856H292.371L310.604 41.8712H299.467L291.189 68.0762L286.458 83.9969H285.867L281.038 67.9773L272.759 41.8712H261.524Z" fill="url(#paint3_linear)"/>
<path d="M310.834 67.7795C310.834 84.2935 319.999 94.8744 335.472 94.8744C347.693 94.8744 356.957 88.1501 359.027 78.0637H348.974C347.397 83.2058 342.469 86.7657 335.571 86.7657C326.996 86.7657 321.28 81.2281 321.28 73.0205V70.1528H358.435C358.632 68.4717 358.829 66.1973 358.829 64.5162C358.829 49.7821 349.467 40.8823 335.374 40.8823C320.393 40.8823 310.834 50.771 310.834 67.7795ZM321.28 62.8352V61.6485C321.28 54.1331 326.996 48.991 335.275 48.991C343.258 48.991 348.58 53.9354 348.58 61.1541V62.8352H321.28Z" fill="url(#paint4_linear)"/>
<path d="M375.498 41.8712C367.614 41.8712 366.53 46.7167 366.53 50.771V93.8856H376.681V50.3755H393.435V41.8712H375.498Z" fill="url(#paint5_linear)"/>
<path d="M406.258 77.9648H396.107C396.107 87.9524 404.189 94.8744 417.789 94.8744C430.503 94.8744 438.978 88.8423 438.978 78.657C438.978 71.6361 435.135 66.0984 425.082 64.3185L415.227 62.5385C412.566 62.143 407.342 61.253 407.342 55.8142C407.342 51.3643 410.792 48.5955 417.198 48.5955C423.21 48.5955 427.25 51.1666 427.447 56.902H437.5C437.401 47.4089 429.911 40.8823 417.198 40.8823C405.076 40.8823 397.093 46.7167 397.093 56.8031C397.093 63.6263 401.035 68.9661 411.285 70.845L421.83 72.8227C423.998 73.2183 428.433 74.2071 428.433 79.3492C428.433 84.1947 424.491 87.1613 417.789 87.1613C410.792 87.1613 406.258 83.7002 406.258 77.9648Z" fill="url(#paint6_linear)"/>
<path d="M443.939 67.7795C443.939 84.2935 453.105 94.8744 468.578 94.8744C480.799 94.8744 490.063 88.1501 492.132 78.0637H482.08C480.503 83.2058 475.575 86.7657 468.676 86.7657C460.102 86.7657 454.386 81.2281 454.386 73.0205V70.1528H491.541C491.738 68.4717 491.935 66.1973 491.935 64.5162C491.935 49.7821 482.572 40.8823 468.479 40.8823C453.499 40.8823 443.939 50.771 443.939 67.7795ZM454.386 62.8352V61.6485C454.386 54.1331 460.102 48.991 468.381 48.991C476.364 48.991 481.685 53.9354 481.685 61.1541V62.8352H454.386Z" fill="url(#paint7_linear)"/>
<path d="M443.939 67.7795C443.939 84.2935 453.105 94.8744 468.578 94.8744C480.799 94.8744 490.063 88.1501 492.132 78.0637H482.08C480.503 83.2058 475.575 86.7657 468.676 86.7657C460.102 86.7657 454.386 81.2281 454.386 73.0205V70.1528H491.541C491.738 68.4717 491.935 66.1973 491.935 64.5162C491.935 49.7821 482.572 40.8823 468.479 40.8823C453.499 40.8823 443.939 50.771 443.939 67.7795ZM454.386 62.8352V61.6485C454.386 54.1331 460.102 48.991 468.381 48.991C476.364 48.991 481.685 53.9354 481.685 61.1541V62.8352H454.386Z" fill="url(#paint8_linear)"/>
<path fill-rule="evenodd" clip-rule="evenodd" d="M54.5213 0C24.3983 0 0 23.9395 0 53.4961C0 77.1681 15.6067 97.1622 37.279 104.25C40.005 104.719 41.0273 103.114 41.0273 101.709C41.0273 100.439 40.9591 96.226 40.9591 91.7457C27.2607 94.2199 23.7168 88.4691 22.6263 85.46C22.013 83.9219 19.3551 79.1742 17.0379 77.9036C15.1297 76.9006 12.4036 74.4264 16.9698 74.3595C21.2633 74.2927 24.3301 78.238 25.3524 79.8429C30.2593 87.9341 38.0968 85.6606 41.2317 84.2563C41.7088 80.7791 43.14 78.4386 44.7075 77.1012C32.5765 75.7638 19.9003 71.1498 19.9003 50.6875C19.9003 44.8698 22.013 40.0552 25.4887 36.3104C24.9435 34.973 23.0353 29.4897 26.0339 22.134C26.0339 22.134 30.6001 20.7297 41.0273 27.6173C45.389 26.4137 50.0233 25.8118 54.6576 25.8118C59.2919 25.8118 63.9262 26.4137 68.288 27.6173C78.7152 20.6629 83.2813 22.134 83.2813 22.134C86.28 29.4897 84.3717 34.973 83.8265 36.3104C87.3023 40.0552 89.415 44.8029 89.415 50.6875C89.415 71.2166 76.6706 75.7638 64.5396 77.1012C66.516 78.7729 68.2198 81.9827 68.2198 86.998C68.2198 94.1531 68.1517 99.9039 68.1517 101.709C68.1517 103.114 69.1739 104.785 71.9 104.25C93.4359 97.1622 109.043 77.1012 109.043 53.4961C109.043 23.9395 84.6444 0 54.5213 0Z" fill="url(#paint9_linear)"/>
<path fill-rule="evenodd" clip-rule="evenodd" d="M527.196 58.0414L498.393 88.5597V93.7463H544.15V87.5264H518.645C515.359 87.5264 511.629 87.6153 508.299 87.7089L531.996 62.5272C532.274 62.2281 532.565 61.9202 532.863 61.6044C536.9 57.3253 542.465 51.4274 542.465 41.5372C542.465 35.3264 540.161 30.1537 536.182 26.5355C532.205 22.9191 526.571 20.8706 519.934 20.8706C513.045 20.8706 507.283 23.0948 503.268 27.1135C499.252 31.1328 497.005 36.9254 497.105 44.0202L497.108 44.2504H503.815V42.4299C503.815 37.8728 505.38 34.0676 508.129 31.4014C510.879 28.7348 514.831 27.1897 519.636 27.1897C523.658 27.1897 527.547 28.3438 530.424 30.467C533.296 32.5867 535.16 35.67 535.16 39.5534V44.0169C535.16 47.7898 533.235 51.6005 527.196 58.0414ZM557.034 85.6926C553.07 79.5973 551.162 70.367 551.162 57.8044C551.162 45.2418 553.07 36.0114 557.034 29.9162C561.011 23.8012 567.037 20.8706 575.18 20.8706C583.322 20.8706 589.324 23.8013 593.276 29.9168C597.215 36.012 599.099 45.2422 599.099 57.8044C599.099 70.3666 597.215 79.5968 593.276 85.692C589.324 91.8075 583.322 94.7382 575.18 94.7382C567.037 94.7382 561.011 91.8076 557.034 85.6926ZM558.763 47.191V68.4177C558.763 75.2738 560.513 80.2959 563.413 83.601C566.31 86.9027 570.379 88.5183 575.081 88.5183C579.782 88.5183 583.876 86.9025 586.798 83.6003C589.723 80.295 591.497 75.273 591.497 68.4177V47.191C591.497 40.3358 589.723 35.3138 586.798 32.0085C583.876 28.7062 579.782 27.0905 575.081 27.0905C570.379 27.0905 566.31 28.7061 563.413 32.0078C560.513 35.3129 558.763 40.335 558.763 47.191Z" fill="url(#paint10_linear)"/>
<path fill-rule="evenodd" clip-rule="evenodd" d="M635.649 58.0414L606.846 88.5597V93.7463H652.603V87.5264H627.098C623.812 87.5264 620.083 87.6153 616.752 87.7089L640.449 62.5272C640.727 62.2281 641.018 61.9202 641.316 61.6044C645.353 57.3253 650.918 51.4274 650.918 41.5372C650.918 35.3264 648.615 30.1537 644.635 26.5355C640.658 22.9191 635.025 20.8706 628.387 20.8706C621.498 20.8706 615.736 23.0948 611.721 27.1135C607.705 31.1328 605.458 36.9254 605.558 44.0202L605.561 44.2504H612.268V42.4299C612.268 37.8728 613.833 34.0676 616.582 31.4014C619.332 28.7348 623.284 27.1897 628.089 27.1897C632.111 27.1897 636 28.3438 638.877 30.467C641.75 32.5867 643.614 35.67 643.614 39.5534V44.0169C643.614 47.7898 641.689 51.6005 635.649 58.0414ZM665.487 85.6926C661.523 79.5973 659.615 70.367 659.615 57.8044C659.615 45.2418 661.523 36.0114 665.487 29.9162C669.464 23.8012 675.491 20.8706 683.633 20.8706C691.775 20.8706 697.777 23.8013 701.729 29.9168C705.668 36.012 707.552 45.2422 707.552 57.8044C707.552 70.3666 705.668 79.5968 701.729 85.692C697.777 91.8075 691.775 94.7382 683.633 94.7382C675.491 94.7382 669.464 91.8076 665.487 85.6926ZM667.217 47.191V68.4177C667.217 75.2738 668.966 80.2959 671.866 83.601C674.763 86.9027 678.833 88.5183 683.534 88.5183C688.235 88.5183 692.33 86.9025 695.252 83.6003C698.176 80.295 699.95 75.273 699.95 68.4177V47.191C699.95 40.3358 698.176 35.3138 695.252 32.0085C692.33 28.7062 688.235 27.0905 683.534 27.0905C678.833 27.0905 674.763 28.7061 671.866 32.0078C668.966 35.3129 667.217 40.335 667.217 47.191Z" fill="url(#paint11_linear)"/>
<defs>
<linearGradient id="paint0_linear" x1="-1.77268e-06" y1="64.003" x2="701.23" y2="135.801" gradientUnits="userSpaceOnUse">
<stop offset="0.0104395" stop-color="#FF9743"/>
<stop offset="0.385974" stop-color="#F65C53"/>
<stop offset="0.696798" stop-color="#D75882"/>
<stop offset="1" stop-color="#975CE2"/>
</linearGradient>
<linearGradient id="paint1_linear" x1="-1.77268e-06" y1="64.003" x2="701.23" y2="135.801" gradientUnits="userSpaceOnUse">
<stop offset="0.0104395" stop-color="#FF9743"/>
<stop offset="0.385974" stop-color="#F65C53"/>
<stop offset="0.696798" stop-color="#D75882"/>
<stop offset="1" stop-color="#975CE2"/>
</linearGradient>
<linearGradient id="paint2_linear" x1="-1.77268e-06" y1="64.003" x2="701.23" y2="135.801" gradientUnits="userSpaceOnUse">
<stop offset="0.0104395" stop-color="#FF9743"/>
<stop offset="0.385974" stop-color="#F65C53"/>
<stop offset="0.696798" stop-color="#D75882"/>
<stop offset="1" stop-color="#975CE2"/>
</linearGradient>
<linearGradient id="paint3_linear" x1="-1.77268e-06" y1="64.003" x2="701.23" y2="135.801" gradientUnits="userSpaceOnUse">
<stop offset="0.0104395" stop-color="#FF9743"/>
<stop offset="0.385974" stop-color="#F65C53"/>
<stop offset="0.696798" stop-color="#D75882"/>
<stop offset="1" stop-color="#975CE2"/>
</linearGradient>
<linearGradient id="paint4_linear" x1="-1.77268e-06" y1="64.003" x2="701.23" y2="135.801" gradientUnits="userSpaceOnUse">
<stop offset="0.0104395" stop-color="#FF9743"/>
<stop offset="0.385974" stop-color="#F65C53"/>
<stop offset="0.696798" stop-color="#D75882"/>
<stop offset="1" stop-color="#975CE2"/>
</linearGradient>
<linearGradient id="paint5_linear" x1="-1.77268e-06" y1="64.003" x2="701.23" y2="135.801" gradientUnits="userSpaceOnUse">
<stop offset="0.0104395" stop-color="#FF9743"/>
<stop offset="0.385974" stop-color="#F65C53"/>
<stop offset="0.696798" stop-color="#D75882"/>
<stop offset="1" stop-color="#975CE2"/>
</linearGradient>
<linearGradient id="paint6_linear" x1="-1.77268e-06" y1="64.003" x2="701.23" y2="135.801" gradientUnits="userSpaceOnUse">
<stop offset="0.0104395" stop-color="#FF9743"/>
<stop offset="0.385974" stop-color="#F65C53"/>
<stop offset="0.696798" stop-color="#D75882"/>
<stop offset="1" stop-color="#975CE2"/>
</linearGradient>
<linearGradient id="paint7_linear" x1="-1.77268e-06" y1="64.003" x2="701.23" y2="135.801" gradientUnits="userSpaceOnUse">
<stop offset="0.0104395" stop-color="#FF9743"/>
<stop offset="0.385974" stop-color="#F65C53"/>
<stop offset="0.696798" stop-color="#D75882"/>
<stop offset="1" stop-color="#975CE2"/>
</linearGradient>
<linearGradient id="paint8_linear" x1="-1.77268e-06" y1="64.003" x2="701.23" y2="135.801" gradientUnits="userSpaceOnUse">
<stop offset="0.0104395" stop-color="#FF9743"/>
<stop offset="0.385974" stop-color="#F65C53"/>
<stop offset="0.696798" stop-color="#D75882"/>
<stop offset="1" stop-color="#975CE2"/>
</linearGradient>
<linearGradient id="paint9_linear" x1="-1.77268e-06" y1="64.003" x2="701.23" y2="135.801" gradientUnits="userSpaceOnUse">
<stop offset="0.0104395" stop-color="#FF9743"/>
<stop offset="0.385974" stop-color="#F65C53"/>
<stop offset="0.696798" stop-color="#D75882"/>
<stop offset="1" stop-color="#975CE2"/>
</linearGradient>
<linearGradient id="paint10_linear" x1="-1.77268e-06" y1="64.003" x2="701.23" y2="135.801" gradientUnits="userSpaceOnUse">
<stop offset="0.0104395" stop-color="#FF9743"/>
<stop offset="0.385974" stop-color="#F65C53"/>
<stop offset="0.696798" stop-color="#D75882"/>
<stop offset="1" stop-color="#975CE2"/>
</linearGradient>
<linearGradient id="paint11_linear" x1="-1.77268e-06" y1="64.003" x2="701.23" y2="135.801" gradientUnits="userSpaceOnUse">
<stop offset="0.0104395" stop-color="#FF9743"/>
<stop offset="0.385974" stop-color="#F65C53"/>
<stop offset="0.696798" stop-color="#D75882"/>
<stop offset="1" stop-color="#975CE2"/>
</linearGradient>
</defs>
</svg>
